<svg xmlns="http://www.w3.org/2000/svg" viewBox="0 0 256 256" fill="none"><path d="M178.522 128.11a7.08 7.08 0 0 0-7.029 7.029c0 28.358-23.118 51.476-51.476 51.476s-51.427-23.142-51.427-51.5a7.08 7.08 0 0 0-7.029-7.029 7.08 7.08 0 0 0-7.028 7.029c0 2.719.196 5.339.465 7.959l-18.71 6.833a1.42 1.42 0 0 0-.833 1.861l4.212 11.51c.098.368.367.661.759.833a1.15 1.15 0 0 0 1.127 0l8.62-3.281 2.424 6.637-4.677 1.788a1.42 1.42 0 0 0-.833 1.861l3.453 9.649c.098.367.367.661.759.833.196.098.367.098.661.098.196 0 .367 0 .465-.098l16.285-5.902c11.975 15.061 30.513 24.808 51.182 24.808 36.122 0 65.509-29.387 65.509-65.508.147-3.796-2.939-6.881-6.881-6.881z" fill="#fa7b5f"/><path d="M177.494 141.775c-23.755 0-43.125-19.371-43.125-43.149S153.739 55.5 177.494 55.5s43.15 19.371 43.15 43.126-19.273 43.15-43.15 43.15zm0-72.242c-15.992 0-29.093 13.102-29.093 29.093s13.101 29.093 29.093 29.093 29.118-13.077 29.118-29.093-13.028-29.093-29.118-29.093z" fill="#88ceb5"/></svg>
